<svg xmlns="http://www.w3.org/2000/svg" viewBox="0 0 112 112" role="img" aria-labelledby="ae5mmo57vop2gvkbtn83marpg6gsdobu" class="ez-site-header__logo__svg--pebble-only"><desc id="ae5mmo57vop2gvkbtn83marpg6gsdobu">Vecteezy logo</desc>
  <path d="M72.92 52.066c.12-2.642.12-5.104.12-7.566 0-5.525-1.444-11.05-5.117-11.05-2.77 0-4.215 2.342-4.215 6.426 0 6.666 4.576 10.75 9.212 12.19ZM56.301 93.804c-17.04 0-18.667-15.254-18.667-30.988 0-15.133-1.144-18.496-6.443-18.496h-7.707v-9.97h7.707c14.753 0 16.62 12.191 16.62 28.526 0 15.554 1.144 20.779 8.31 20.779 7.587 0 12.825-12.191 15.294-22.1-11.02-2.642-17.884-10.51-17.884-21.86 0-9.008 5.841-16.454 14.572-16.454 9.635 0 14.994 9.188 14.994 21.259 0 3.063-.12 5.945-.301 8.167h11.38v10.029H81.17C78.16 77.95 69.729 93.804 56.3 93.804ZM56 112c39.38 0 56-24.862 56-55.55C112 14.113 92.731 0 67.38 0 34.685 0 0 26.784 0 56.45 0 87.138 25.11 112 56 112Z"></path>
</svg>